<?xml version="1.0" standalone="no"?>
<!DOCTYPE svg PUBLIC "-//W3C//DTD SVG 20010904//EN"
 "http://www.w3.org/TR/2001/REC-SVG-20010904/DTD/svg10.dtd">
<svg version="1.0" xmlns="http://www.w3.org/2000/svg"
 width="1404.000000pt" height="962.000000pt" viewBox="0 0 1404.000000 962.000000"
 preserveAspectRatio="xMidYMid meet">

<g transform="translate(0.000000,962.000000) scale(0.100000,-0.100000)"
fill="#000000" stroke="none">
<path d="M7977 8493 c-15 -14 -6 -34 20 -44 20 -7 24 -12 14 -22 -9 -9 -17 -8
-34 2 -20 13 -21 13 -8 -3 19 -23 56 -17 56 9 0 13 -8 21 -22 23 -24 3 -30 16
-14 27 5 3 12 1 16 -5 3 -5 11 -10 17 -10 7 0 6 6 -2 15 -13 16 -32 19 -43 8z"/>
<path d="M8113 8455 c0 -27 2 -38 4 -22 2 15 2 37 0 50 -2 12 -4 0 -4 -28z"/>
<path d="M8262 8454 c2 -23 9 -39 18 -41 12 -4 13 -3 1 5 -9 6 -11 19 -7 35 3
15 1 29 -5 32 -7 5 -9 -6 -7 -31z"/>
<path d="M8627 8483 c-6 -11 4 -73 12 -73 4 0 5 18 3 40 -4 40 -7 46 -15 33z"/>
<path d="M8044 8455 c-13 -32 24 -63 41 -35 3 5 0 7 -8 4 -8 -3 -18 -1 -22 5
-3 7 2 11 14 11 12 0 21 7 21 15 0 8 -9 15 -20 15 -11 0 -23 -7 -26 -15z m33
-1 c-3 -3 -12 -4 -19 -1 -8 3 -5 6 6 6 11 1 17 -2 13 -5z"/>
<path d="M8135 8460 c-3 -6 -3 -19 0 -30 7 -21 39 -27 51 -9 4 8 0 9 -15 4
-12 -4 -21 -2 -21 4 0 6 9 11 20 11 13 0 18 5 14 15 -7 17 -40 20 -49 5z"/>
<path d="M8204 8455 c-13 -32 23 -63 40 -36 4 5 -3 7 -14 4 -16 -4 -20 0 -20
17 0 17 4 21 20 17 11 -3 20 -1 20 4 0 15 -40 10 -46 -6z"/>
<path d="M8332 8440 c-1 -25 3 -30 24 -30 20 0 24 5 24 30 0 25 -4 30 -23 30
-20 0 -24 -5 -25 -30z m35 14 c-3 -3 -12 -4 -19 -1 -8 3 -5 6 6 6 11 1 17 -2
13 -5z m-2 -24 c-3 -5 -10 -10 -16 -10 -5 0 -9 5 -9 10 0 6 7 10 16 10 8 0 12
-4 9 -10z"/>
<path d="M8390 8440 c0 -16 5 -30 10 -30 6 0 10 11 10 25 0 34 18 32 23 -2 4
-26 4 -26 6 5 1 28 -2 32 -24 32 -21 0 -25 -5 -25 -30z"/>
<path d="M8494 8455 c-9 -23 4 -47 23 -43 11 2 19 14 21 31 3 22 -1 27 -18 27
-11 0 -23 -7 -26 -15z m36 -15 c0 -11 -7 -20 -15 -20 -8 0 -15 9 -15 20 0 11
7 20 15 20 8 0 15 -9 15 -20z"/>
<path d="M8560 8428 c0 -24 4 -38 8 -32 4 6 15 13 25 17 26 10 18 51 -10 55
-21 3 -23 -1 -23 -40z m38 15 c-5 -25 -28 -28 -28 -4 0 12 6 21 16 21 9 0 14
-7 12 -17z"/>
<path d="M8662 8440 c0 -19 2 -27 5 -17 2 9 2 25 0 35 -3 9 -5 1 -5 -18z"/>
<path d="M8685 8460 c-12 -20 6 -51 28 -48 31 4 31 52 0 56 -11 2 -24 -2 -28
-8z m41 -11 c10 -17 -13 -36 -27 -22 -12 12 -4 33 11 33 5 0 12 -5 16 -11z"/>
<path d="M8751 8438 c1 -30 2 -30 8 -9 9 35 29 37 34 4 4 -27 4 -27 6 5 1 28
-2 32 -24 32 -22 0 -25 -4 -24 -32z"/>
<path d="M4600 8405 c0 -30 3 -55 8 -55 4 0 7 25 7 55 0 30 -3 55 -7 55 -5 0
-8 -25 -8 -55z"/>
<path d="M4670 8406 c0 -31 5 -56 10 -56 6 0 10 22 10 49 0 28 -4 53 -10 56
-6 4 -10 -15 -10 -49z"/>
<path d="M6411 8418 c2 -30 2 -31 6 -5 5 34 30 36 36 2 4 -23 4 -23 3 2 -1 21
-7 29 -23 31 -20 3 -23 -1 -22 -30z"/>
<path d="M6475 8440 c-12 -20 6 -51 28 -48 31 4 31 52 0 56 -11 2 -24 -2 -28
-8z m41 -11 c10 -17 -13 -36 -27 -22 -12 12 -4 33 11 33 5 0 12 -5 16 -11z"/>
<path d="M6541 8418 c2 -31 2 -31 6 -5 2 15 10 27 18 27 8 0 16 -12 18 -27 l4
-28 2 28 c0 15 5 27 10 27 5 0 12 -12 14 -27 4 -26 4 -26 6 5 1 31 0 32 -39
32 -39 0 -40 -1 -39 -32z"/>
<path d="M7881 7576 c-16 -19 -6 -36 20 -36 10 0 19 -7 19 -15 0 -18 -21 -20
-39 -2 -11 10 -13 9 -9 -3 6 -19 48 -26 59 -9 10 17 3 28 -29 40 -19 7 -22 13
-14 21 8 8 16 7 28 -3 15 -12 17 -12 12 1 -7 21 -32 24 -47 6z"/>
<path d="M6227 7539 c-9 -24 -15 -45 -12 -47 2 -3 7 3 11 12 8 20 33 21 40 1
4 -8 10 -15 15 -15 9 0 -15 68 -30 83 -4 4 -15 -11 -24 -34z m33 1 c0 -5 -4
-10 -10 -10 -5 0 -10 5 -10 10 0 6 5 10 10 10 6 0 10 -4 10 -10z"/>
<path d="M6863 7535 c0 -27 2 -38 4 -22 2 15 2 37 0 50 -2 12 -4 0 -4 -28z"/>
<path d="M8013 7540 c0 -25 2 -35 4 -22 2 12 2 32 0 45 -2 12 -4 2 -4 -23z"/>
<path d="M8168 7569 c-6 -17 3 -69 11 -69 7 0 6 69 -2 76 -3 3 -7 0 -9 -7z"/>
<path d="M8793 7540 c0 -25 2 -35 4 -22 2 12 2 32 0 45 -2 12 -4 2 -4 -23z"/>
<path d="M6457 7563 c-6 -11 4 -73 12 -73 4 0 5 18 3 40 -4 40 -7 46 -15 33z"/>
<path d="M10020 7524 c0 -44 1 -45 28 -42 23 3 27 8 29 38 2 36 -9 50 -39 50
-15 0 -18 -9 -18 -46z m34 30 c18 -7 12 -24 -10 -24 -8 0 -14 7 -14 15 0 17 2
18 24 9z m16 -49 c0 -8 -9 -15 -20 -15 -11 0 -20 7 -20 15 0 8 9 15 20 15 11
0 20 -7 20 -15z"/>
<path d="M10223 7525 c-1 -27 1 -42 4 -32 5 18 5 18 25 0 21 -18 21 -18 9 5
-7 12 -9 28 -5 35 6 8 3 8 -8 -1 -14 -12 -17 -10 -21 15 -2 15 -4 6 -4 -22z"/>
<path d="M7954 7545 c-13 -32 24 -63 41 -35 3 5 0 7 -8 4 -8 -3 -18 -1 -22 5
-3 7 2 11 14 11 12 0 21 7 21 15 0 8 -9 15 -20 15 -11 0 -23 -7 -26 -15z m33
-1 c-3 -3 -12 -4 -19 -1 -8 3 -5 6 6 6 11 1 17 -2 13 -5z"/>
<path d="M8044 7545 c-13 -32 24 -63 41 -35 3 5 0 7 -8 4 -8 -3 -18 -1 -22 5
-3 7 2 11 14 11 12 0 21 7 21 15 0 8 -9 15 -20 15 -11 0 -23 -7 -26 -15z m33
-1 c-3 -3 -12 -4 -19 -1 -8 3 -5 6 6 6 11 1 17 -2 13 -5z"/>
<path d="M8110 7535 c0 -29 25 -44 43 -25 9 10 7 11 -10 5 -19 -5 -23 -2 -23
14 0 11 8 22 18 24 13 4 11 5 -5 6 -18 1 -23 -4 -23 -24z"/>
<path d="M8202 7530 c0 -19 2 -27 5 -17 2 9 2 25 0 35 -3 9 -5 1 -5 -18z"/>
<path d="M8227 7547 c-8 -22 17 -51 37 -44 25 10 17 51 -10 55 -12 2 -24 -3
-27 -11z m41 -14 c-5 -25 -28 -28 -28 -4 0 12 6 21 16 21 9 0 14 -7 12 -17z"/>
<path d="M8290 7530 c0 -16 5 -30 10 -30 6 0 10 11 10 25 0 34 18 32 23 -2 4
-26 4 -26 6 5 1 28 -2 32 -24 32 -21 0 -25 -5 -25 -30z"/>
<path d="M8361 7528 c2 -30 2 -31 6 -5 5 34 30 36 36 2 4 -23 4 -23 3 2 -1 21
-7 29 -23 31 -20 3 -23 -1 -22 -30z"/>
<path d="M8425 7550 c-3 -6 -3 -19 0 -30 7 -21 39 -27 51 -9 4 8 0 9 -15 4
-12 -4 -21 -2 -21 4 0 6 9 11 20 11 13 0 18 5 14 15 -7 17 -40 20 -49 5z"/>
<path d="M8491 7528 c2 -28 2 -29 6 -8 3 14 10 28 17 32 7 5 5 8 -6 8 -14 0
-18 -8 -17 -32z"/>
<path d="M8563 7535 c1 -23 7 -31 25 -33 19 -3 22 1 21 30 -2 30 -2 31 -6 6
-2 -16 -8 -28 -13 -28 -5 0 -13 12 -19 28 l-10 27 2 -30z"/>
<path d="M8631 7528 c1 -30 2 -30 8 -9 9 35 29 37 34 4 4 -27 4 -27 6 5 1 28
-2 32 -24 32 -22 0 -25 -4 -24 -32z"/>
<path d="M8697 7548 c-10 -30 31 -65 47 -39 4 5 -3 7 -14 4 -11 -3 -20 0 -20
6 0 6 9 11 21 11 27 0 20 24 -8 28 -12 2 -23 -3 -26 -10z m40 -4 c-3 -3 -12
-4 -19 -1 -8 3 -5 6 6 6 11 1 17 -2 13 -5z"/>
<path d="M8822 7530 c0 -19 2 -27 5 -17 2 9 2 25 0 35 -3 9 -5 1 -5 -18z"/>
<path d="M8847 7548 c-7 -19 11 -48 31 -49 11 -1 8 -4 -8 -10 l-25 -8 25 2
c21 2 25 8 28 40 3 34 1 37 -22 37 -13 0 -26 -6 -29 -12z m38 -18 c0 -7 -6
-15 -12 -17 -8 -3 -13 4 -13 17 0 13 5 20 13 18 6 -3 12 -11 12 -18z"/>
<path d="M8913 7535 c1 -23 7 -31 25 -33 19 -3 22 1 21 30 -2 30 -2 31 -6 6
-2 -16 -8 -28 -13 -28 -5 0 -13 12 -19 28 l-10 27 2 -30z"/>
<path d="M8984 7545 c-13 -32 24 -63 41 -35 3 5 0 7 -8 4 -8 -3 -18 -1 -22 5
-3 7 2 11 14 11 12 0 21 7 21 15 0 8 -9 15 -20 15 -11 0 -23 -7 -26 -15z m33
-1 c-3 -3 -12 -4 -19 -1 -8 3 -5 6 6 6 11 1 17 -2 13 -5z"/>
<path d="M6298 7510 c-2 -22 0 -40 4 -40 5 0 8 18 8 40 0 22 -2 40 -4 40 -2 0
-6 -18 -8 -40z"/>
<path d="M6325 7540 c-12 -20 6 -51 28 -48 31 4 31 52 0 56 -11 2 -24 -2 -28
-8z m41 -11 c10 -17 -13 -36 -27 -22 -12 12 -4 33 11 33 5 0 12 -5 16 -11z"/>
<path d="M6391 7523 c-1 -29 2 -33 24 -33 22 0 25 4 24 33 -1 29 -2 29 -8 8
-9 -35 -29 -37 -34 -4 -4 27 -4 27 -6 -4z"/>
<path d="M6487 7538 c-10 -30 31 -65 47 -39 4 5 -3 7 -14 4 -11 -3 -20 0 -20
6 0 6 9 11 21 11 27 0 20 24 -8 28 -12 2 -23 -3 -26 -10z m40 -4 c-3 -3 -12
-4 -19 -1 -8 3 -5 6 6 6 11 1 17 -2 13 -5z"/>
<path d="M6550 7520 c0 -16 5 -30 10 -30 6 0 10 11 10 24 0 13 6 27 13 29 6 3
2 6 -10 6 -19 1 -23 -4 -23 -29z"/>
<path d="M6631 7523 c-1 -29 2 -33 24 -33 22 0 25 4 24 33 -1 29 -2 29 -8 8
-9 -35 -29 -37 -34 -4 -4 27 -4 27 -6 -4z"/>
<path d="M6690 7520 c0 -16 5 -30 10 -30 6 0 10 11 10 25 0 34 18 32 23 -2 4
-26 4 -26 6 5 1 28 -2 32 -24 32 -21 0 -25 -5 -25 -30z"/>
<path d="M6764 7535 c-13 -32 24 -63 41 -35 3 5 0 7 -8 4 -8 -3 -18 -1 -22 5
-3 7 2 11 14 11 12 0 21 7 21 15 0 8 -9 15 -20 15 -11 0 -23 -7 -26 -15z m33
-1 c-3 -3 -12 -4 -19 -1 -8 3 -5 6 6 6 11 1 17 -2 13 -5z"/>
<path d="M6880 7520 c0 -16 5 -30 10 -30 6 0 10 14 10 30 0 17 -4 30 -10 30
-5 0 -10 -13 -10 -30z"/>
<path d="M6917 7543 c-15 -15 -6 -45 16 -51 22 -6 22 -6 -3 -13 l-25 -7 28 -1
c25 -1 27 2 27 39 0 32 -4 40 -18 40 -10 0 -22 -3 -25 -7z m31 -20 c-4 -22
-22 -20 -26 1 -2 10 3 16 13 16 10 0 15 -7 13 -17z"/>
<path d="M6981 7523 c-1 -29 2 -33 24 -33 22 0 25 4 24 33 -1 29 -2 29 -8 8
-9 -35 -29 -37 -34 -4 -4 27 -4 27 -6 -4z"/>
<path d="M7045 7540 c-3 -6 -3 -19 0 -30 7 -21 39 -27 51 -9 4 8 0 9 -15 4
-12 -4 -21 -2 -21 4 0 6 9 11 20 11 13 0 18 5 14 15 -7 17 -40 20 -49 5z"/>
<path d="M10115 7531 c19 -8 19 -8 -3 -15 -29 -10 -23 -30 10 -34 22 -3 24 0
20 27 -3 24 -9 31 -26 30 -20 0 -20 -1 -1 -8z m15 -31 c0 -5 -7 -10 -16 -10
-8 0 -12 5 -9 10 3 6 10 10 16 10 5 0 9 -4 9 -10z"/>
<path d="M10164 7525 c-13 -32 23 -63 40 -36 4 5 -3 7 -14 4 -16 -4 -20 0 -20
17 0 17 4 21 20 17 11 -3 20 -1 20 4 0 15 -40 10 -46 -6z"/>
<path d="M4517 7489 c-9 -24 -15 -45 -12 -47 2 -3 7 3 11 12 8 20 33 21 40 1
4 -8 10 -15 15 -15 9 0 -15 68 -30 83 -4 4 -15 -11 -24 -34z m33 1 c0 -5 -4
-10 -10 -10 -5 0 -10 5 -10 10 0 6 5 10 10 10 6 0 10 -4 10 -10z"/>
<path d="M4587 7517 c-3 -8 -2 -29 3 -48 7 -31 8 -32 9 -6 1 35 21 36 21 0 0
-36 7 -26 13 17 2 19 9 34 16 33 6 -2 11 2 11 7 0 16 -30 12 -36 -5 -4 -8 -11
-15 -16 -15 -6 0 -8 7 -4 15 3 8 1 15 -3 15 -5 0 -11 -6 -14 -13z"/>
<path d="M4943 7485 c0 -27 2 -38 4 -22 2 15 2 37 0 50 -2 12 -4 0 -4 -28z"/>
<path d="M4730 7490 c0 -16 -2 -30 -4 -30 -2 0 -11 -3 -20 -6 -11 -4 -16 0
-16 14 0 11 8 23 18 25 12 3 11 5 -6 6 -20 1 -23 -3 -20 -26 3 -24 8 -28 36
-30 28 -1 32 2 32 23 0 33 18 30 23 -3 4 -26 4 -26 6 5 1 22 -3 32 -14 32 -8
0 -15 5 -15 10 0 6 -4 10 -10 10 -5 0 -10 -13 -10 -30z"/>
<path d="M5123 7480 c0 -25 2 -35 4 -22 2 12 2 32 0 45 -2 12 -4 2 -4 -23z"/>
<path d="M4652 7470 c0 -19 2 -27 5 -17 2 9 2 25 0 35 -3 9 -5 1 -5 -18z"/>
<path d="M4804 7485 c-13 -32 24 -63 41 -35 3 5 0 7 -8 4 -8 -3 -18 -1 -22 5
-3 7 2 11 14 11 12 0 21 7 21 15 0 8 -9 15 -20 15 -11 0 -23 -7 -26 -15z m33
-1 c-3 -3 -12 -4 -19 -1 -8 3 -5 6 6 6 11 1 17 -2 13 -5z"/>
<path d="M4871 7468 c2 -28 2 -29 6 -8 3 14 10 28 17 32 7 5 5 8 -6 8 -14 0
-18 -8 -17 -32z"/>
<path d="M4967 7488 c-10 -30 31 -65 47 -39 4 5 -3 7 -14 4 -11 -3 -20 0 -20
6 0 6 9 11 21 11 27 0 20 24 -8 28 -12 2 -23 -3 -26 -10z m40 -4 c-3 -3 -12
-4 -19 -1 -8 3 -5 6 6 6 11 1 17 -2 13 -5z"/>
<path d="M5030 7491 c0 -5 10 -16 23 -25 l22 -17 -24 5 c-17 3 -21 2 -13 -6
12 -12 42 -4 42 13 0 6 -10 14 -22 17 -23 6 -23 6 2 13 l25 7 -27 1 c-16 1
-28 -3 -28 -8z"/>
<path d="M5152 7470 c0 -19 2 -27 5 -17 2 9 2 25 0 35 -3 9 -5 1 -5 -18z"/>
<path d="M5177 7488 c-7 -19 11 -48 31 -49 11 -1 8 -4 -8 -10 l-25 -8 25 2
c21 2 25 8 28 40 3 34 1 37 -22 37 -13 0 -26 -6 -29 -12z m38 -18 c0 -7 -6
-15 -12 -17 -8 -3 -13 4 -13 17 0 13 5 20 13 18 6 -3 12 -11 12 -18z"/>
<path d="M5243 7475 c1 -23 7 -31 25 -33 19 -3 22 1 21 30 -2 30 -2 31 -6 6
-2 -16 -8 -28 -13 -28 -5 0 -13 12 -19 28 l-10 27 2 -30z"/>
<path d="M5314 7485 c-13 -32 24 -63 41 -35 3 5 0 7 -8 4 -8 -3 -18 -1 -22 5
-3 7 2 11 14 11 12 0 21 7 21 15 0 8 -9 15 -20 15 -11 0 -23 -7 -26 -15z m33
-1 c-3 -3 -12 -4 -19 -1 -8 3 -5 6 6 6 11 1 17 -2 13 -5z"/>
<path d="M5380 7489 c0 -7 8 -18 18 -26 16 -14 16 -14 0 -9 -10 3 -18 1 -18
-4 0 -6 9 -10 20 -10 24 0 27 28 3 37 -15 6 -15 7 3 14 17 7 17 8 -3 8 -13 1
-23 -4 -23 -10z"/>
<path d="M7131 6156 c-16 -19 -10 -66 10 -79 24 -15 69 0 69 23 0 15 -7 20
-27 20 -21 0 -24 -3 -13 -10 18 -11 6 -25 -15 -16 -10 3 -15 15 -13 28 2 18 9
23 31 21 18 -1 27 2 24 10 -6 18 -52 20 -66 3z"/>
<path d="M7245 6160 c-3 -5 -2 -10 4 -10 5 0 13 5 16 10 3 6 2 10 -4 10 -5 0
-13 -4 -16 -10z"/>
<path d="M7520 6120 c0 -27 5 -50 10 -50 6 0 10 23 10 50 0 28 -4 50 -10 50
-5 0 -10 -22 -10 -50z"/>
<path d="M7750 6121 c0 -28 5 -51 10 -51 6 0 10 20 10 44 0 25 -4 48 -10 51
-6 4 -10 -13 -10 -44z"/>
<path d="M7780 6160 c0 -5 5 -10 10 -10 6 0 10 5 10 10 0 6 -4 10 -10 10 -5 0
-10 -4 -10 -10z"/>
<path d="M7227 6134 c-4 -4 -7 -18 -7 -31 0 -27 21 -39 48 -28 15 7 14 9 -8
15 -25 8 -25 8 -2 9 17 1 22 6 20 19 -3 17 -38 29 -51 16z m33 -14 c0 -5 -5
-10 -11 -10 -5 0 -7 5 -4 10 3 6 8 10 11 10 2 0 4 -4 4 -10z"/>
<path d="M7300 6105 c0 -19 5 -35 10 -35 6 0 10 11 10 25 0 14 5 25 10 25 6 0
10 5 10 10 0 6 -9 10 -20 10 -16 0 -20 -7 -20 -35z"/>
<path d="M7357 6134 c-4 -4 -7 -18 -7 -31 0 -27 21 -39 48 -28 15 7 14 9 -8
15 -25 8 -25 8 -2 9 17 1 22 6 20 19 -3 17 -38 29 -51 16z m33 -14 c0 -5 -5
-10 -11 -10 -5 0 -7 5 -4 10 3 6 8 10 11 10 2 0 4 -4 4 -10z"/>
<path d="M7430 6105 c0 -19 5 -35 10 -35 6 0 10 11 10 25 0 14 5 25 10 25 6 0
10 5 10 10 0 6 -9 10 -20 10 -16 0 -20 -7 -20 -35z"/>
<path d="M7555 6129 c-4 -5 -4 -21 -1 -35 5 -17 13 -24 31 -24 31 0 33 17 3
23 -19 4 -18 5 6 6 21 1 27 5 22 17 -3 9 -6 18 -6 20 0 9 -49 3 -55 -7z m35
-9 c0 -5 -5 -10 -11 -10 -5 0 -7 5 -4 10 3 6 8 10 11 10 2 0 4 -4 4 -10z"/>
<path d="M7630 6124 c0 -9 9 -18 20 -21 28 -7 25 -22 -2 -16 -18 5 -20 3 -12
-7 15 -16 48 -9 52 11 1 9 -7 21 -20 27 l-23 12 24 -6 c16 -4 21 -3 17 5 -11
17 -56 14 -56 -5z"/>
<path d="M7780 6105 c0 -19 5 -35 10 -35 6 0 10 16 10 35 0 19 -4 35 -10 35
-5 0 -10 -16 -10 -35z"/>
<path d="M7827 6133 c-16 -15 -6 -54 16 -64 l22 -10 -23 5 c-15 3 -22 0 -19
-7 2 -7 13 -13 25 -15 24 -4 42 28 42 74 0 20 -5 24 -28 24 -16 0 -32 -3 -35
-7z m33 -23 c0 -11 -4 -20 -10 -20 -5 0 -10 9 -10 20 0 11 5 20 10 20 6 0 10
-9 10 -20z"/>
<path d="M7902 6108 c3 -29 7 -33 36 -36 31 -3 32 -2 32 32 0 20 -4 36 -10 36
-5 0 -10 -11 -10 -25 0 -16 -6 -25 -15 -25 -9 0 -15 9 -15 25 0 14 -5 25 -11
25 -6 0 -9 -14 -7 -32z"/>
<path d="M7985 6129 c-4 -5 -4 -21 -1 -35 5 -17 13 -24 31 -24 31 0 33 17 3
23 -19 4 -18 5 6 6 21 1 27 5 22 17 -3 9 -6 18 -6 20 0 9 -49 3 -55 -7z m35
-9 c0 -5 -5 -10 -11 -10 -5 0 -7 5 -4 10 3 6 8 10 11 10 2 0 4 -4 4 -10z"/>
<path d="M8060 6124 c0 -9 9 -18 20 -21 28 -7 25 -22 -2 -16 -18 5 -20 3 -12
-7 15 -16 48 -9 52 11 1 9 -7 21 -20 27 l-23 12 24 -6 c16 -4 21 -3 17 5 -11
17 -56 14 -56 -5z"/>
<path d="M2073 5455 c0 -27 2 -38 4 -22 2 15 2 37 0 50 -2 12 -4 0 -4 -28z"/>
<path d="M1502 5454 c2 -23 9 -39 18 -41 12 -4 13 -3 1 5 -9 6 -11 19 -7 35 3
15 1 29 -5 32 -7 5 -9 -6 -7 -31z"/>
<path d="M2012 5454 c2 -32 7 -40 26 -42 19 -3 22 1 22 27 0 17 -4 31 -10 31
-5 0 -10 -11 -10 -25 0 -14 -5 -25 -11 -25 -7 0 -9 11 -6 30 4 16 2 32 -4 36
-7 4 -9 -8 -7 -32z"/>
<path d="M2248 5479 c-6 -17 3 -69 11 -69 7 0 6 69 -2 76 -3 3 -7 0 -9 -7z"/>
<path d="M2465 5440 c0 -26 3 -43 7 -37 4 7 8 23 8 37 0 14 -4 30 -8 37 -4 6
-7 -11 -7 -37z"/>
<path d="M1331 5438 c2 -28 2 -29 6 -8 3 14 10 28 17 32 7 5 5 8 -6 8 -14 0
-18 -8 -17 -32z"/>
<path d="M1367 5457 c-8 -22 17 -51 37 -44 25 10 17 51 -10 55 -12 2 -24 -3
-27 -11z m41 -14 c-5 -25 -28 -28 -28 -4 0 12 6 21 16 21 9 0 14 -7 12 -17z"/>
<path d="M1435 5460 c-12 -20 6 -51 28 -48 31 4 31 52 0 56 -11 2 -24 -2 -28
-8z m41 -11 c10 -17 -13 -36 -27 -22 -12 12 -4 33 11 33 5 0 12 -5 16 -11z"/>
<path d="M1570 5444 c0 -16 5 -36 10 -44 6 -10 7 -2 3 25 -7 49 -13 58 -13 19z"/>
<path d="M1610 5459 c0 -7 8 -18 18 -26 16 -14 16 -14 0 -9 -10 3 -18 1 -18
-4 0 -6 9 -10 20 -10 24 0 27 28 3 37 -15 6 -15 7 3 14 17 7 17 8 -3 8 -13 1
-23 -4 -23 -10z"/>
<path d="M1671 5443 c-1 -29 2 -33 24 -33 22 0 25 4 24 33 -1 29 -2 29 -8 8
-9 -35 -29 -37 -34 -4 -4 27 -4 27 -6 -4z"/>
<path d="M1730 5428 c0 -24 4 -38 8 -32 4 6 15 13 25 17 10 4 17 17 17 32 0
20 -5 25 -25 25 -23 0 -25 -4 -25 -42z m40 12 c0 -21 -15 -27 -25 -10 -7 12 2
30 16 30 5 0 9 -9 9 -20z"/>
<path d="M1797 5458 c-10 -30 31 -65 47 -39 4 5 -3 7 -14 4 -11 -3 -20 0 -20
6 0 6 9 11 21 11 27 0 20 24 -8 28 -12 2 -23 -3 -26 -10z m40 -4 c-3 -3 -12
-4 -19 -1 -8 3 -5 6 6 6 11 1 17 -2 13 -5z"/>
<path d="M1861 5438 c0 -32 1 -32 10 -8 6 13 15 28 22 32 8 5 4 8 -10 8 -19 0
-23 -5 -22 -32z"/>
<path d="M1943 5445 c1 -23 7 -31 25 -33 19 -3 22 1 21 30 -2 30 -2 31 -6 6
-2 -16 -8 -28 -13 -28 -5 0 -13 12 -19 28 l-10 27 2 -30z"/>
<path d="M2102 5440 c0 -19 2 -27 5 -17 2 9 2 25 0 35 -3 9 -5 1 -5 -18z"/>
<path d="M2120 5455 c0 -8 7 -15 15 -15 8 0 15 -5 15 -11 0 -6 -7 -8 -17 -4
-14 5 -15 3 -6 -6 13 -13 43 -6 43 10 0 5 -10 13 -22 17 -22 7 -22 7 -3 15 19
7 19 8 -2 8 -14 1 -23 -5 -23 -14z"/>
<path d="M2182 5440 c-1 -25 3 -30 24 -30 20 0 24 5 24 30 0 25 -4 30 -23 30
-20 0 -24 -5 -25 -30z m35 14 c-3 -3 -12 -4 -19 -1 -8 3 -5 6 6 6 11 1 17 -2
13 -5z m3 -24 c0 -5 -7 -10 -16 -10 -8 0 -12 5 -9 10 3 6 10 10 16 10 5 0 9
-4 9 -10z"/>
<path d="M2284 5455 c-13 -32 24 -63 41 -35 3 5 0 7 -8 4 -8 -3 -18 -1 -22 5
-3 7 2 11 14 11 12 0 21 7 21 15 0 8 -9 15 -20 15 -11 0 -23 -7 -26 -15z m33
-1 c-3 -3 -12 -4 -19 -1 -8 3 -5 6 6 6 11 1 17 -2 13 -5z"/>
<path d="M2351 5443 c-1 -29 2 -33 24 -33 22 0 25 4 24 33 -1 29 -2 29 -8 8
-9 -35 -29 -37 -34 -4 -4 27 -4 27 -6 -4z"/>
<path d="M2411 5438 c0 -32 1 -32 10 -8 6 13 15 28 22 32 8 5 4 8 -10 8 -19 0
-23 -5 -22 -32z"/>
<path d="M1908 5443 c7 -3 16 -2 19 1 4 3 -2 6 -13 5 -11 0 -14 -3 -6 -6z"/>
<path d="M2657 4769 c-9 -24 -15 -45 -12 -47 2 -3 7 3 11 12 8 20 33 21 40 1
4 -8 10 -15 15 -15 9 0 -15 68 -30 83 -4 4 -15 -11 -24 -34z m33 1 c0 -5 -4
-10 -10 -10 -5 0 -10 5 -10 10 0 6 5 10 10 10 6 0 10 -4 10 -10z"/>
<path d="M2731 4791 c-4 -9 -4 -29 0 -46 l7 -30 1 28 c1 35 21 36 21 0 0 -36
7 -26 13 17 2 19 9 34 16 33 6 -2 11 1 11 6 0 16 -60 9 -69 -8z m29 -1 c0 -5
-5 -10 -11 -10 -5 0 -7 5 -4 10 3 6 8 10 11 10 2 0 4 -4 4 -10z"/>
<path d="M2883 4765 c0 -27 2 -38 4 -22 2 15 10 27 18 27 8 0 16 -12 18 -27
l4 -28 2 28 c1 21 -4 30 -18 34 -11 3 -22 12 -24 22 -3 9 -5 -6 -4 -34z"/>
<path d="M3083 4765 c0 -27 2 -38 4 -22 2 15 2 37 0 50 -2 12 -4 0 -4 -28z"/>
<path d="M3363 4760 c0 -25 2 -35 4 -22 2 12 2 32 0 45 -2 12 -4 2 -4 -23z"/>
<path d="M2792 4750 c0 -19 2 -27 5 -17 2 9 2 25 0 35 -3 9 -5 1 -5 -18z"/>
<path d="M2820 4755 c0 -29 25 -44 43 -25 9 10 7 11 -10 5 -19 -5 -23 -2 -23
14 0 11 8 22 18 24 13 4 11 5 -5 6 -18 1 -23 -4 -23 -24z"/>
<path d="M2945 4770 c-3 -6 -3 -19 0 -30 7 -21 39 -27 51 -9 4 8 0 9 -15 4
-12 -4 -21 -2 -21 4 0 6 9 11 20 11 13 0 18 5 14 15 -7 17 -40 20 -49 5z"/>
<path d="M3011 4748 c2 -28 2 -29 6 -8 3 14 10 28 17 32 7 5 5 8 -6 8 -14 0
-18 -8 -17 -32z"/>
<path d="M3134 4765 c-13 -32 24 -63 41 -35 3 5 0 7 -8 4 -8 -3 -18 -1 -22 5
-3 7 2 11 14 11 12 0 21 7 21 15 0 8 -9 15 -20 15 -11 0 -23 -7 -26 -15z m33
-1 c-3 -3 -12 -4 -19 -1 -8 3 -5 6 6 6 11 1 17 -2 13 -5z"/>
<path d="M3201 4748 c2 -31 2 -31 6 -5 5 34 23 36 23 2 0 -14 5 -25 10 -25 6
0 10 11 10 25 0 34 18 32 23 -2 4 -26 4 -26 6 5 1 31 0 32 -39 32 -39 0 -40
-1 -39 -32z"/>
<path d="M3300 4738 c0 -24 4 -38 8 -32 4 6 15 13 25 17 26 10 18 51 -10 55
-21 3 -23 -1 -23 -40z m38 15 c-5 -25 -28 -28 -28 -4 0 12 6 21 16 21 9 0 14
-7 12 -17z"/>
<path d="M3394 4765 c-9 -23 4 -47 23 -43 11 2 19 14 21 31 3 22 -1 27 -18 27
-11 0 -23 -7 -26 -15z m36 -15 c0 -11 -7 -20 -15 -20 -8 0 -15 9 -15 20 0 11
7 20 15 20 8 0 15 -9 15 -20z"/>
<path d="M3455 4764 c5 -10 9 -29 9 -41 1 -32 10 -28 24 10 16 45 15 58 -3 27
-10 -18 -14 -20 -15 -8 0 9 -5 20 -12 24 -8 5 -9 2 -3 -12z"/>
<path d="M3515 4770 c-3 -6 -3 -19 0 -30 7 -21 39 -27 51 -9 4 8 0 9 -15 4
-12 -4 -21 -2 -21 4 0 6 9 11 20 11 13 0 18 5 14 15 -7 17 -40 20 -49 5z"/>
<path d="M6382 4459 c-34 -13 -47 -50 -30 -85 14 -30 42 -40 84 -30 19 5 24
13 24 36 0 27 -3 30 -30 30 -33 0 -39 -14 -12 -29 16 -9 16 -10 -1 -17 -27
-10 -51 18 -43 50 7 27 33 35 53 15 8 -8 13 -8 17 0 16 25 -24 44 -62 30z"/>
<path d="M6673 4445 c-5 -11 -8 -39 -5 -62 3 -34 8 -43 23 -43 10 0 19 5 19
10 0 6 -4 10 -10 10 -15 0 -12 47 3 53 8 4 9 8 1 14 -6 4 -13 15 -16 23 -4 12
-7 11 -15 -5z"/>
<path d="M6720 4450 c0 -5 7 -10 15 -10 8 0 15 5 15 10 0 6 -7 10 -15 10 -8 0
-15 -4 -15 -10z"/>
<path d="M7080 4445 c0 -8 -8 -15 -18 -15 -24 0 -42 -19 -42 -45 0 -30 19 -45
57 -45 l33 0 0 60 c0 47 -3 60 -15 60 -8 0 -15 -7 -15 -15z m0 -60 c0 -16 -6
-25 -15 -25 -9 0 -15 9 -15 25 0 16 6 25 15 25 9 0 15 -9 15 -25z"/>
<path d="M8050 4400 c0 -33 4 -60 10 -60 6 0 10 27 10 60 0 33 -4 60 -10 60
-6 0 -10 -27 -10 -60z"/>
<path d="M8200 4446 c0 -9 -12 -16 -27 -18 -25 -3 -28 -7 -28 -43 0 -39 1 -40
38 -42 l37 -1 0 59 c0 33 -4 59 -10 59 -5 0 -10 -6 -10 -14z m-3 -52 c8 -21
-13 -42 -28 -27 -13 13 -5 43 11 43 6 0 13 -7 17 -16z"/>
<path d="M8480 4400 c0 -47 3 -60 15 -60 12 0 15 13 15 60 0 47 -3 60 -15 60
-12 0 -15 -13 -15 -60z"/>
<path d="M8530 4450 c0 -5 5 -10 10 -10 6 0 10 5 10 10 0 6 -4 10 -10 10 -5 0
-10 -4 -10 -10z"/>
<path d="M6482 4418 c-16 -16 -15 -53 2 -68 19 -15 58 -9 64 9 3 10 -2 12 -22
7 -15 -4 -26 -2 -26 4 0 5 12 10 26 10 21 0 25 4 22 23 -3 25 -45 36 -66 15z
m38 -18 c0 -5 -4 -10 -10 -10 -5 0 -10 5 -10 10 0 6 5 10 10 10 6 0 10 -4 10
-10z"/>
<path d="M6577 4424 c-15 -16 -6 -41 21 -52 l27 -12 -28 6 c-21 3 -28 1 -25
-8 6 -18 46 -22 64 -8 21 19 17 29 -18 46 -32 14 -32 15 -5 9 21 -4 28 -2 25
7 -5 14 -50 23 -61 12z"/>
<path d="M6720 4385 c0 -33 4 -45 15 -45 11 0 15 12 15 45 0 33 -4 45 -15 45
-11 0 -15 -12 -15 -45z"/>
<path d="M6782 4418 c-30 -30 -3 -82 40 -76 29 4 47 50 28 72 -15 19 -51 21
-68 4z m45 -24 c8 -22 -15 -44 -26 -25 -10 16 -4 41 10 41 5 0 12 -7 16 -16z"/>
<path d="M6880 4384 c0 -50 17 -60 22 -12 4 46 28 49 28 4 0 -26 4 -36 16 -36
12 0 14 9 12 43 -3 41 -4 42 -40 44 l-38 1 0 -44z"/>
<path d="M7132 4388 c3 -42 4 -43 41 -45 l37 -1 0 44 c0 50 -17 60 -22 12 -4
-46 -28 -49 -28 -4 0 26 -4 36 -16 36 -12 0 -14 -9 -12 -42z"/>
<path d="M7280 4370 c0 -47 3 -60 15 -60 8 0 15 7 15 15 0 8 8 15 19 15 10 0
24 7 31 15 11 14 14 13 24 -1 14 -19 57 -16 64 5 3 9 -1 11 -16 7 -11 -4 -23
-2 -27 4 -4 6 6 10 24 10 19 0 31 5 31 13 0 38 -68 52 -77 17 l-6 -21 -14 21
c-10 13 -25 20 -49 20 l-34 0 0 -60z m58 12 c2 -15 -2 -22 -12 -22 -11 0 -16
9 -16 26 0 31 23 28 28 -4z m92 18 c0 -5 -4 -10 -10 -10 -5 0 -10 5 -10 10 0
6 5 10 10 10 6 0 10 -4 10 -10z"/>
<path d="M7470 4385 c0 -33 4 -45 15 -45 10 0 15 10 15 30 0 18 6 33 15 36 25
10 17 24 -15 24 -29 0 -30 -2 -30 -45z"/>
<path d="M7547 4423 c-14 -14 -6 -33 21 -48 l27 -15 -29 6 c-22 5 -28 4 -24
-7 3 -8 19 -14 39 -14 28 0 35 4 37 23 2 12 -2 22 -9 22 -8 0 -9 3 0 13 6 8 8
17 4 20 -8 9 -58 9 -66 0z"/>
<path d="M7642 4418 c-7 -7 -12 -21 -12 -33 0 -12 5 -26 12 -33 7 -7 21 -12
33 -12 12 0 26 5 33 12 7 7 12 21 12 33 0 12 -5 26 -12 33 -7 7 -21 12 -33 12
-12 0 -26 -5 -33 -12z m51 -21 c3 -8 1 -20 -4 -28 -11 -19 -34 3 -26 25 8 20
23 21 30 3z"/>
<path d="M7740 4386 c0 -34 4 -46 15 -46 11 0 15 11 15 36 0 45 24 42 28 -4 5
-48 24 -38 20 11 -3 41 -4 42 -40 45 l-38 3 0 -45z"/>
<path d="M7850 4384 c0 -50 17 -60 22 -12 4 46 28 49 28 4 0 -26 4 -36 16 -36
12 0 14 9 12 43 -3 41 -4 42 -40 44 l-38 1 0 -44z"/>
<path d="M7950 4404 c-14 -36 4 -66 37 -62 15 2 28 9 31 17 3 9 -1 11 -16 7
-11 -4 -23 -2 -27 4 -4 6 6 10 24 10 32 0 41 16 19 38 -21 21 -58 14 -68 -14z
m50 -4 c0 -5 -4 -10 -10 -10 -5 0 -10 5 -10 10 0 6 5 10 10 10 6 0 10 -4 10
-10z"/>
<path d="M8240 4404 c-14 -36 4 -66 37 -62 15 2 28 9 31 17 3 9 -1 11 -16 7
-11 -4 -23 -2 -27 4 -4 6 6 10 24 10 32 0 41 16 19 38 -21 21 -58 14 -68 -14z
m50 -4 c0 -5 -4 -10 -10 -10 -5 0 -10 5 -10 10 0 6 5 10 10 10 6 0 10 -4 10
-10z"/>
<path d="M8337 4423 c-14 -14 -6 -33 21 -48 l27 -15 -29 6 c-22 5 -28 4 -24
-7 3 -8 19 -14 39 -14 28 0 35 4 37 23 2 12 -2 22 -9 22 -8 0 -9 3 0 13 6 8 8
17 4 20 -8 9 -58 9 -66 0z"/>
<path d="M8530 4385 c0 -25 5 -45 10 -45 6 0 10 20 10 45 0 25 -4 45 -10 45
-5 0 -10 -20 -10 -45z"/>
<path d="M8574 4416 c-3 -8 -4 -27 -2 -43 2 -23 8 -28 31 -28 15 1 27 -3 27
-8 0 -5 -13 -7 -30 -5 -34 5 -39 -6 -10 -22 14 -8 26 -8 40 0 16 9 20 21 20
64 l0 53 -35 1 c-22 1 -38 -4 -41 -12z m50 -15 c7 -11 -3 -41 -14 -41 -11 0
-21 30 -14 41 3 5 9 9 14 9 5 0 11 -4 14 -9z"/>
<path d="M8682 4388 c3 -42 4 -43 41 -46 l37 -3 0 45 c0 34 -4 46 -15 46 -10
0 -15 -11 -15 -35 0 -24 -5 -35 -15 -35 -10 0 -15 11 -15 35 0 19 -5 35 -11
35 -6 0 -9 -17 -7 -42z"/>
<path d="M8780 4404 c-14 -36 4 -66 37 -62 15 2 28 9 31 17 3 9 -1 11 -16 7
-11 -4 -23 -2 -27 4 -4 6 6 10 24 10 32 0 41 16 19 38 -21 21 -58 14 -68 -14z
m50 -4 c0 -5 -4 -10 -10 -10 -5 0 -10 5 -10 10 0 6 5 10 10 10 6 0 10 -4 10
-10z"/>
<path d="M8877 4423 c-14 -14 -6 -33 21 -48 l27 -15 -29 6 c-22 5 -28 4 -24
-7 3 -8 19 -14 39 -14 28 0 35 4 37 23 2 12 -2 22 -9 22 -8 0 -9 3 0 13 6 8 8
17 4 20 -8 9 -58 9 -66 0z"/>
<path d="M860 4378 l-1 -33 -20 28 c-29 38 -39 34 -38 -15 l2 -43 6 35 6 35
20 -32 c26 -45 35 -41 35 12 0 25 -2 45 -5 45 -3 0 -5 -15 -5 -32z"/>
<path d="M887 4367 c-8 -22 17 -51 37 -44 25 10 17 51 -10 55 -12 2 -24 -3
-27 -11z m41 -14 c-5 -25 -28 -28 -28 -4 0 12 6 21 16 21 9 0 14 -7 12 -17z"/>
<path d="M953 4355 c1 -23 7 -31 25 -33 19 -3 22 1 21 30 -2 30 -2 31 -6 6 -2
-16 -8 -28 -13 -28 -5 0 -13 12 -19 28 l-10 27 2 -30z"/>
<path d="M1023 4350 c6 -16 14 -30 17 -30 3 0 11 14 17 30 6 17 7 30 2 30 -5
0 -9 -7 -9 -15 0 -8 -4 -15 -10 -15 -5 0 -10 7 -10 15 0 8 -4 15 -9 15 -5 0
-4 -13 2 -30z"/>
<path d="M1077 4368 c-10 -30 31 -65 47 -39 4 5 -3 7 -14 4 -11 -3 -20 0 -20
6 0 6 9 11 21 11 27 0 20 24 -8 28 -12 2 -23 -3 -26 -10z m40 -4 c-3 -3 -12
-4 -19 -1 -8 3 -5 6 6 6 11 1 17 -2 13 -5z"/>
<path d="M1165 4371 c19 -8 19 -8 -3 -15 -29 -10 -23 -30 10 -34 22 -3 24 0
20 27 -3 24 -9 31 -26 30 -20 0 -20 -1 -1 -8z m15 -31 c0 -5 -7 -10 -16 -10
-8 0 -12 5 -9 10 3 6 10 10 16 10 5 0 9 -4 9 -10z"/>
<path d="M1214 4350 c1 -18 7 -26 24 -28 19 -3 22 1 21 30 -2 30 -2 31 -6 6
-5 -34 -30 -37 -36 -5 -3 19 -4 19 -3 -3z"/>
<path d="M1311 4348 c1 -30 2 -30 8 -9 9 35 29 37 34 4 4 -27 4 -27 6 5 1 28
-2 32 -24 32 -22 0 -25 -4 -24 -32z"/>
<path d="M1377 4367 c-8 -22 17 -51 37 -44 25 10 17 51 -10 55 -12 2 -24 -3
-27 -11z m41 -14 c-5 -25 -28 -28 -28 -4 0 12 6 21 16 21 9 0 14 -7 12 -17z"/>
<path d="M1441 4348 c2 -31 2 -31 6 -5 2 15 10 27 18 27 8 0 16 -12 18 -27 l4
-28 2 28 c0 15 5 27 10 27 5 0 12 -12 14 -27 4 -26 4 -26 6 5 1 31 0 32 -39
32 -39 0 -40 -1 -39 -32z"/>
<path d="M2096 4004 c-19 -18 -20 -28 -6 -55 13 -23 43 -25 60 -4 9 10 9 15 1
15 -6 0 -11 -4 -11 -10 0 -17 -29 -11 -39 9 -7 13 -6 24 3 37 12 15 16 16 30
5 9 -7 16 -9 16 -3 0 5 -7 13 -16 16 -21 8 -20 8 -38 -10z"/>
<path d="M2173 3975 c0 -27 2 -38 4 -22 2 15 10 27 18 27 8 0 16 -12 18 -27 4
-26 4 -26 6 5 1 25 -3 32 -18 32 -11 0 -22 8 -24 18 -3 9 -5 -5 -4 -33z"/>
<path d="M2573 3970 c0 -25 2 -35 4 -22 2 12 2 32 0 45 -2 12 -4 2 -4 -23z"/>
<path d="M2243 3975 c4 -8 2 -17 -4 -20 -15 -10 0 -25 27 -25 20 0 24 5 24 30
0 26 -4 30 -26 30 -19 0 -25 -4 -21 -15z m34 -1 c-3 -3 -12 -4 -19 -1 -8 3 -5
6 6 6 11 1 17 -2 13 -5z m-2 -24 c-3 -5 -10 -10 -16 -10 -5 0 -9 5 -9 10 0 6
7 10 16 10 8 0 12 -4 9 -10z"/>
<path d="M2300 3960 c0 -16 5 -30 10 -30 6 0 10 11 10 25 0 34 18 32 23 -2 4
-26 4 -26 6 5 1 28 -2 32 -24 32 -21 0 -25 -5 -25 -30z"/>
<path d="M2377 3983 c-15 -15 -6 -45 16 -51 22 -6 22 -6 -3 -13 l-25 -7 28 -1
c25 -1 27 2 27 39 0 32 -4 40 -18 40 -10 0 -22 -3 -25 -7z m31 -20 c-4 -22
-22 -20 -26 1 -2 10 3 16 13 16 10 0 15 -7 13 -17z"/>
<path d="M2435 3980 c-3 -6 -3 -19 0 -30 7 -21 39 -27 51 -9 4 8 0 9 -15 4
-12 -4 -21 -2 -21 4 0 6 9 11 20 11 13 0 18 5 14 15 -7 17 -40 20 -49 5z"/>
<path d="M2501 3958 c2 -28 2 -29 6 -8 3 14 10 28 17 32 7 5 5 8 -6 8 -14 0
-18 -8 -17 -32z"/>
<path d="M2604 3975 c-13 -32 24 -63 41 -35 3 5 0 7 -8 4 -8 -3 -18 -1 -22 5
-3 7 2 11 14 11 12 0 21 7 21 15 0 8 -9 15 -20 15 -11 0 -23 -7 -26 -15z m33
-1 c-3 -3 -12 -4 -19 -1 -8 3 -5 6 6 6 11 1 17 -2 13 -5z"/>
<path d="M2701 3958 c1 -30 2 -30 8 -9 9 35 29 37 34 4 4 -27 4 -27 6 5 1 28
-2 32 -24 32 -22 0 -25 -4 -24 -32z"/>
<path d="M2767 3977 c-8 -22 17 -51 37 -44 25 10 17 51 -10 55 -12 2 -24 -3
-27 -11z m41 -14 c-5 -25 -28 -28 -28 -4 0 12 6 21 16 21 9 0 14 -7 12 -17z"/>
<path d="M2831 3958 c2 -31 2 -31 6 -5 2 15 10 27 18 27 8 0 16 -12 18 -27 l4
-28 2 28 c0 15 5 27 10 27 5 0 12 -12 14 -27 4 -26 4 -26 6 5 1 31 0 32 -39
32 -39 0 -40 -1 -39 -32z"/>
<path d="M11650 3815 c0 -43 1 -45 30 -45 31 0 34 5 30 50 -2 27 -15 40 -42
40 -15 0 -18 -9 -18 -45z m48 17 c2 -7 -6 -12 -17 -12 -21 0 -27 11 -14 24 9
9 26 2 31 -12z m2 -37 c0 -8 -9 -15 -20 -15 -11 0 -20 7 -20 15 0 8 9 15 20
15 11 0 20 -7 20 -15z"/>
<path d="M11850 3810 c0 -22 5 -40 10 -40 6 0 10 5 10 12 0 6 8 20 18 31 16
19 16 20 0 14 -12 -4 -18 -1 -18 8 0 8 -4 15 -10 15 -5 0 -10 -18 -10 -40z"/>
<path d="M11732 3800 c-1 -25 3 -30 24 -30 20 0 24 5 24 30 0 25 -4 30 -23 30
-20 0 -24 -5 -25 -30z m35 14 c-3 -3 -12 -4 -19 -1 -8 3 -5 6 6 6 11 1 17 -2
13 -5z m3 -24 c0 -5 -7 -10 -16 -10 -8 0 -12 5 -9 10 3 6 10 10 16 10 5 0 9
-4 9 -10z"/>
<path d="M11795 3820 c-9 -15 4 -50 20 -50 8 0 16 4 19 9 3 5 -2 8 -12 7 -9 0
-17 6 -17 14 0 8 8 14 18 14 9 -1 17 2 17 7 0 12 -37 11 -45 -1z"/>
<path d="M11880 3791 c0 -5 5 -13 10 -16 6 -3 10 -2 10 4 0 5 -4 13 -10 16 -5
3 -10 2 -10 -4z"/>
<path d="M392 3145 c0 -43 1 -46 7 -17 l6 34 18 -31 c25 -43 37 -39 36 12 -2
33 -3 36 -6 12 l-5 -30 -29 35 -28 35 1 -50z"/>
<path d="M475 3150 c-12 -20 6 -51 28 -48 31 4 31 52 0 56 -11 2 -24 -2 -28
-8z m41 -11 c10 -17 -13 -36 -27 -22 -12 12 -4 33 11 33 5 0 12 -5 16 -11z"/>
<path d="M544 3130 c1 -18 7 -26 24 -28 19 -3 22 1 21 30 -2 30 -2 31 -6 6 -5
-34 -30 -37 -36 -5 -3 19 -4 19 -3 -3z"/>
<path d="M600 3153 c1 -4 7 -19 15 -33 l13 -25 11 28 c15 39 13 47 -4 17 -10
-18 -14 -20 -15 -8 0 9 -4 20 -10 23 -5 3 -10 3 -10 -2z"/>
<path d="M665 3150 c-3 -6 -3 -19 0 -30 7 -21 39 -27 51 -9 4 8 0 9 -15 4 -12
-4 -21 -2 -21 4 0 6 9 11 20 11 13 0 18 5 14 15 -7 17 -40 20 -49 5z"/>
<path d="M732 3130 c-1 -25 3 -30 24 -30 20 0 24 5 24 30 0 25 -4 30 -23 30
-20 0 -24 -5 -25 -30z m35 14 c-3 -3 -12 -4 -19 -1 -8 3 -5 6 6 6 11 1 17 -2
13 -5z m3 -24 c0 -5 -7 -10 -16 -10 -8 0 -12 5 -9 10 3 6 10 10 16 10 5 0 9
-4 9 -10z"/>
<path d="M801 3133 c-1 -29 2 -33 24 -33 22 0 25 4 24 33 -1 29 -2 29 -8 8 -9
-35 -29 -37 -34 -4 -4 27 -4 27 -6 -4z"/>
<path d="M900 3118 c0 -24 4 -38 8 -32 4 6 15 13 25 17 26 10 18 51 -10 55
-21 3 -23 -1 -23 -40z m38 15 c-5 -25 -28 -28 -28 -4 0 12 6 21 16 21 9 0 14
-7 12 -17z"/>
<path d="M961 3128 c2 -28 2 -29 6 -8 3 14 10 28 17 32 7 5 5 8 -6 8 -14 0
-18 -8 -17 -32z"/>
<path d="M1004 3145 c-13 -32 24 -63 41 -35 3 5 0 7 -8 4 -8 -3 -18 -1 -22 5
-3 7 2 11 14 11 12 0 21 7 21 15 0 8 -9 15 -20 15 -11 0 -23 -7 -26 -15z m33
-1 c-3 -3 -12 -4 -19 -1 -8 3 -5 6 6 6 11 1 17 -2 13 -5z"/>
<path d="M1071 3128 c2 -30 2 -31 6 -5 5 34 30 36 36 2 4 -23 4 -23 3 2 -1 21
-7 29 -23 31 -20 3 -23 -1 -22 -30z"/>
<path d="M1135 3150 c-12 -20 6 -51 28 -48 31 4 31 52 0 56 -11 2 -24 -2 -28
-8z m41 -11 c10 -17 -13 -36 -27 -22 -12 12 -4 33 11 33 5 0 12 -5 16 -11z"/>
<path d="M1201 3128 c2 -31 2 -31 6 -5 2 15 10 27 18 27 8 0 16 -12 18 -27 l4
-28 2 28 c0 15 5 27 10 27 5 0 12 -12 14 -27 4 -26 4 -26 6 5 1 31 0 32 -39
32 -39 0 -40 -1 -39 -32z"/>
<path d="M1986 3127 c-25 -18 -18 -71 10 -75 11 -2 27 5 35 15 13 16 12 17 -3
4 -24 -18 -48 -7 -48 23 0 25 25 43 35 26 4 -6 11 -10 17 -10 7 0 6 6 -2 15
-15 18 -21 19 -44 2z"/>
<path d="M2463 3095 c0 -27 2 -38 4 -22 2 15 2 37 0 50 -2 12 -4 0 -4 -28z"/>
<path d="M2050 3090 c0 -22 5 -40 10 -40 6 0 10 11 10 25 0 34 18 32 23 -2 4
-26 4 -26 6 5 1 22 -3 32 -14 32 -8 0 -15 5 -15 10 0 6 -4 10 -10 10 -5 0 -10
-18 -10 -40z"/>
<path d="M2122 3080 c-1 -25 3 -30 24 -30 20 0 24 5 24 30 0 25 -4 30 -23 30
-20 0 -24 -5 -25 -30z m35 14 c-3 -3 -12 -4 -19 -1 -8 3 -5 6 6 6 11 1 17 -2
13 -5z m3 -24 c0 -5 -7 -10 -16 -10 -8 0 -12 5 -9 10 3 6 10 10 16 10 5 0 9
-4 9 -10z"/>
<path d="M2191 3078 c2 -30 2 -31 6 -5 5 34 30 36 36 2 4 -23 4 -23 3 2 -1 21
-7 29 -23 31 -20 3 -23 -1 -22 -30z"/>
<path d="M2255 3100 c-10 -17 5 -50 23 -51 14 0 13 -2 -3 -9 -19 -8 -19 -9 1
-9 21 -1 34 21 34 62 0 19 -44 25 -55 7z m35 -20 c0 -21 -15 -27 -25 -10 -7
12 2 30 16 30 5 0 9 -9 9 -20z"/>
<path d="M2324 3095 c-13 -32 24 -63 41 -35 3 5 0 7 -8 4 -8 -3 -18 -1 -22 5
-3 7 2 11 14 11 12 0 21 7 21 15 0 8 -9 15 -20 15 -11 0 -23 -7 -26 -15z m33
-1 c-3 -3 -12 -4 -19 -1 -8 3 -5 6 6 6 11 1 17 -2 13 -5z"/>
<path d="M2380 3080 c0 -16 5 -30 10 -30 6 0 10 11 10 24 0 13 6 27 13 29 6 3
2 6 -10 6 -19 1 -23 -4 -23 -29z"/>
<path d="M2485 3100 c-3 -6 -3 -19 0 -30 7 -21 39 -27 51 -9 4 8 0 9 -15 4
-12 -4 -21 -2 -21 4 0 6 9 11 20 11 13 0 18 5 14 15 -7 17 -40 20 -49 5z"/>
<path d="M2580 3070 c0 -22 5 -40 10 -40 6 0 10 5 10 10 0 6 6 10 14 10 16 0
31 34 21 50 -3 5 -17 10 -31 10 -21 0 -24 -4 -24 -40z m45 10 c0 -7 -6 -15
-12 -17 -8 -3 -13 4 -13 17 0 13 5 20 13 18 6 -3 12 -11 12 -18z"/>
<path d="M2651 3078 c2 -28 2 -29 6 -8 3 14 10 28 17 32 7 5 5 8 -6 8 -14 0
-18 -8 -17 -32z"/>
<path d="M2694 3095 c-13 -32 24 -63 41 -35 3 5 0 7 -8 4 -8 -3 -18 -1 -22 5
-3 7 2 11 14 11 12 0 21 7 21 15 0 8 -9 15 -20 15 -11 0 -23 -7 -26 -15z m33
-1 c-3 -3 -12 -4 -19 -1 -8 3 -5 6 6 6 11 1 17 -2 13 -5z"/>
<path d="M2750 3080 c0 -16 5 -30 10 -30 6 0 10 11 10 25 0 34 18 32 23 -2 4
-26 4 -26 6 5 1 28 -2 32 -24 32 -21 0 -25 -5 -25 -30z"/>
<path d="M2824 3095 c-9 -23 4 -47 23 -43 11 2 19 14 21 31 3 22 -1 27 -18 27
-11 0 -23 -7 -26 -15z m36 -15 c0 -11 -7 -20 -15 -20 -8 0 -15 9 -15 20 0 11
7 20 15 20 8 0 15 -9 15 -20z"/>
<path d="M2891 3078 c2 -31 2 -31 6 -5 5 34 23 36 23 2 0 -14 5 -25 10 -25 6
0 10 11 10 25 0 34 18 32 23 -2 4 -26 4 -26 6 5 1 31 0 32 -39 32 -39 0 -40
-1 -39 -32z"/>
<path d="M4331 3096 c-16 -19 -10 -66 10 -79 24 -15 69 0 69 23 0 15 -7 20
-27 20 -21 0 -24 -3 -13 -10 18 -11 6 -25 -15 -16 -10 3 -15 15 -13 28 2 18 9
23 31 21 18 -1 27 2 24 10 -6 18 -52 20 -66 3z"/>
<path d="M4450 3099 c0 -5 5 -7 10 -4 6 3 10 8 10 11 0 2 -4 4 -10 4 -5 0 -10
-5 -10 -11z"/>
<path d="M4720 3060 c0 -27 5 -50 10 -50 6 0 10 23 10 50 0 28 -4 50 -10 50
-5 0 -10 -22 -10 -50z"/>
<path d="M5228 3088 c-9 -26 7 -73 25 -76 16 -3 17 -1 5 17 -9 16 -10 23 -1
32 9 9 8 15 -2 25 -17 17 -22 17 -27 2z"/>
<path d="M5608 3089 c-7 -22 5 -79 17 -79 11 0 11 8 6 83 -1 11 -19 8 -23 -4z"/>
<path d="M4425 3069 c-4 -5 -4 -21 -1 -35 5 -17 13 -24 31 -24 31 0 33 17 3
23 -19 4 -18 5 6 6 21 1 27 5 22 17 -3 9 -6 18 -6 20 0 9 -49 3 -55 -7z m35
-9 c0 -5 -5 -10 -11 -10 -5 0 -7 5 -4 10 3 6 8 10 11 10 2 0 4 -4 4 -10z"/>
<path d="M4500 3045 c0 -19 5 -35 10 -35 6 0 10 11 10 25 0 14 5 25 10 25 6 0
10 5 10 10 0 6 -9 10 -20 10 -16 0 -20 -7 -20 -35z"/>
<path d="M4557 3074 c-4 -4 -7 -18 -7 -31 0 -27 21 -39 48 -28 15 7 14 9 -8
15 -25 8 -25 8 -2 9 17 1 22 6 20 19 -3 17 -38 29 -51 16z m33 -14 c0 -5 -5
-10 -11 -10 -5 0 -7 5 -4 10 3 6 8 10 11 10 2 0 4 -4 4 -10z"/>
<path d="M4630 3045 c0 -19 5 -35 10 -35 6 0 10 11 10 25 0 14 5 25 10 25 6 0
10 5 10 10 0 6 -9 10 -20 10 -16 0 -20 -7 -20 -35z"/>
<path d="M4755 3069 c-4 -5 -4 -21 -1 -35 5 -17 13 -24 31 -24 31 0 33 17 3
23 -19 4 -18 5 6 6 21 1 27 5 22 17 -3 9 -6 18 -6 20 0 9 -49 3 -55 -7z m35
-9 c0 -5 -5 -10 -11 -10 -5 0 -7 5 -4 10 3 6 8 10 11 10 2 0 4 -4 4 -10z"/>
<path d="M4874 3066 c-11 -28 1 -51 25 -51 14 0 26 6 29 14 3 9 -2 11 -18 6
-18 -6 -21 -3 -18 12 2 11 11 17 22 15 11 -2 15 1 11 7 -9 16 -45 13 -51 -3z"/>
<path d="M4949 3064 c-9 -11 -10 -20 -2 -32 15 -24 44 -27 59 -7 28 38 -27 75
-57 39z m41 -20 c0 -17 -22 -14 -28 4 -2 7 3 12 12 12 9 0 16 -7 16 -16z"/>
<path d="M5030 3045 c0 -19 5 -35 10 -35 6 0 10 11 10 24 0 14 5 28 10 31 6 4
10 -7 10 -24 0 -17 5 -31 10 -31 6 0 10 11 10 24 0 14 5 28 10 31 6 4 10 -7
10 -24 0 -17 5 -31 10 -31 6 0 10 16 10 35 l0 35 -50 0 -50 0 0 -35z"/>
<path d="M5150 3030 c0 -27 5 -50 10 -50 6 0 10 7 10 15 0 8 9 15 20 15 12 0
22 9 26 24 8 34 -2 46 -37 46 -28 0 -29 -1 -29 -50z m50 14 c0 -8 -7 -14 -15
-14 -15 0 -21 21 -9 33 10 9 24 -2 24 -19z"/>
<path d="M5281 3066 c-16 -20 2 -56 29 -56 28 0 34 18 8 23 l-23 4 23 2 c17 1
22 6 20 19 -4 22 -41 27 -57 8z m34 -6 c3 -5 1 -10 -4 -10 -6 0 -11 5 -11 10
0 6 2 10 4 10 3 0 8 -4 11 -10z"/>
<path d="M5390 3045 c0 -19 5 -35 10 -35 6 0 10 11 10 24 0 35 28 42 32 8 2
-23 8 -27 33 -27 27 0 30 3 30 30 0 30 -1 30 -57 32 l-58 3 0 -35z m100 -1 c0
-8 -7 -14 -15 -14 -15 0 -21 21 -9 33 10 9 24 -2 24 -19z"/>
<path d="M5529 3064 c-9 -11 -10 -20 -2 -32 15 -24 44 -27 59 -7 28 38 -27 75
-57 39z m41 -20 c0 -17 -22 -14 -28 4 -2 7 3 12 12 12 9 0 16 -7 16 -16z"/>
<path d="M10122 3048 c-16 -16 -15 -63 1 -76 6 -5 26 -11 43 -14 30 -4 31 -3
32 35 1 22 -3 46 -9 53 -14 17 -51 18 -67 2z m56 -34 c2 -15 -4 -23 -18 -27
-23 -6 -36 13 -26 39 8 22 40 13 44 -12z"/>
<path d="M10300 3050 c0 -5 5 -10 10 -10 6 0 10 5 10 10 0 6 -4 10 -10 10 -5
0 -10 -4 -10 -10z"/>
<path d="M10337 3038 c-8 -23 5 -78 19 -78 10 0 12 8 8 30 -4 18 -2 30 4 30 6
0 12 -12 14 -27 2 -17 10 -29 21 -31 16 -3 17 -1 5 17 -9 16 -10 23 -1 32 9 9
8 15 -4 27 -13 13 -16 13 -25 1 -7 -11 -11 -11 -15 -1 -2 6 -8 12 -13 12 -4 0
-10 -6 -13 -12z"/>
<path d="M10220 2995 c0 -32 2 -35 30 -35 28 0 30 3 30 35 0 19 -4 35 -10 35
-5 0 -10 -11 -10 -25 0 -14 -4 -25 -10 -25 -5 0 -10 11 -10 25 0 14 -4 25 -10
25 -5 0 -10 -16 -10 -35z"/>
<path d="M10300 2995 c0 -19 5 -35 10 -35 6 0 10 16 10 35 0 19 -4 35 -10 35
-5 0 -10 -16 -10 -35z"/>
<path d="M10425 3019 c-4 -5 -4 -21 -1 -35 5 -17 13 -24 31 -24 31 0 33 17 3
23 -19 4 -18 5 6 6 21 1 27 5 22 17 -3 9 -6 18 -6 20 0 9 -49 3 -55 -7z m35
-9 c0 -5 -5 -10 -11 -10 -5 0 -7 5 -4 10 3 6 8 10 11 10 2 0 4 -4 4 -10z"/>
<path d="M10500 2995 c0 -19 5 -35 10 -35 6 0 10 10 10 21 0 12 8 28 18 35 15
12 14 13 -10 14 -25 0 -28 -3 -28 -35z"/>
<path d="M11346 2747 c-12 -9 -17 -23 -14 -42 2 -25 8 -30 34 -33 26 -3 33 1
37 20 6 22 -15 68 -31 68 -5 0 -16 -6 -26 -13z m44 -32 c0 -23 -24 -40 -41
-29 -13 8 -11 52 4 57 21 7 37 -4 37 -28z"/>
<path d="M11512 2714 c2 -23 9 -39 18 -41 12 -4 13 -3 1 5 -9 6 -11 19 -7 35
3 15 1 29 -5 32 -7 5 -9 -6 -7 -31z"/>
<path d="M11547 2743 c-6 -11 4 -73 12 -73 4 0 5 18 3 40 -4 40 -7 46 -15 33z"/>
<path d="M12392 2714 c2 -32 7 -40 26 -42 18 -3 22 1 22 22 0 33 16 34 24 1 7
-26 39 -35 52 -14 4 8 0 9 -15 4 -12 -4 -21 -2 -21 4 0 6 9 11 20 11 13 0 17
5 14 14 -4 9 -21 14 -50 14 -40 0 -44 -2 -44 -24 0 -13 -5 -24 -11 -24 -7 0
-9 11 -6 30 4 16 2 32 -4 36 -7 4 -9 -8 -7 -32z"/>
<path d="M11421 2703 c-1 -29 2 -33 24 -33 22 0 25 4 24 33 -1 29 -2 29 -8 8
-9 -35 -29 -37 -34 -4 -4 27 -4 27 -6 -4z"/>
<path d="M11480 2700 c0 -16 5 -30 10 -30 6 0 10 14 10 30 0 17 -4 30 -10 30
-5 0 -10 -13 -10 -30z"/>
<path d="M11577 2718 c-10 -30 31 -65 47 -39 4 5 -3 7 -14 4 -11 -3 -20 0 -20
6 0 6 9 11 21 11 27 0 20 24 -8 28 -12 2 -23 -3 -26 -10z m40 -4 c-3 -3 -12
-4 -19 -1 -8 3 -5 6 6 6 11 1 17 -2 13 -5z"/>
<path d="M11640 2700 c0 -16 5 -30 10 -30 6 0 10 11 10 24 0 13 6 27 13 29 6
3 2 6 -10 6 -19 1 -23 -4 -23 -29z"/>
<path d="M11720 2719 c0 -7 8 -18 18 -26 16 -14 16 -14 0 -9 -10 3 -18 1 -18
-4 0 -6 9 -10 20 -10 24 0 27 28 3 37 -15 6 -15 7 3 14 17 7 17 8 -3 8 -13 1
-23 -4 -23 -10z"/>
<path d="M11795 2721 c19 -8 19 -8 -3 -15 -29 -10 -23 -30 10 -34 22 -3 24 0
20 27 -3 24 -9 31 -26 30 -20 0 -20 -1 -1 -8z m15 -31 c0 -5 -7 -10 -16 -10
-8 0 -12 5 -9 10 3 6 10 10 16 10 5 0 9 -4 9 -10z"/>
<path d="M11841 2698 c1 -30 2 -30 8 -9 9 35 29 37 34 4 4 -27 4 -27 6 5 1 28
-2 32 -24 32 -22 0 -25 -4 -24 -32z"/>
<path d="M11910 2719 c0 -7 8 -18 18 -26 16 -14 16 -14 0 -9 -10 3 -18 1 -18
-4 0 -6 9 -10 20 -10 24 0 27 28 3 37 -15 6 -15 7 3 14 17 7 17 8 -3 8 -13 1
-23 -4 -23 -10z"/>
<path d="M12004 2715 c-13 -32 24 -63 41 -35 3 5 0 7 -8 4 -8 -3 -18 -1 -22 5
-3 7 2 11 14 11 12 0 21 7 21 15 0 8 -9 15 -20 15 -11 0 -23 -7 -26 -15z m33
-1 c-3 -3 -12 -4 -19 -1 -8 3 -5 6 6 6 11 1 17 -2 13 -5z"/>
<path d="M12071 2698 c2 -30 2 -31 6 -5 5 34 30 36 36 2 4 -23 4 -23 3 2 -1
21 -7 29 -23 31 -20 3 -23 -1 -22 -30z"/>
<path d="M12130 2699 c0 -16 5 -29 10 -29 6 0 10 11 10 25 0 14 5 25 10 25 6
0 10 -9 10 -20 0 -25 27 -37 43 -21 9 9 8 11 -4 6 -10 -4 -20 -2 -24 4 -3 7 2
11 14 11 12 0 21 6 21 14 0 10 -13 14 -45 14 -43 0 -45 -1 -45 -29z m77 15
c-3 -3 -12 -4 -19 -1 -8 3 -5 6 6 6 11 1 17 -2 13 -5z"/>
<path d="M12237 2718 c-7 -19 11 -48 31 -49 11 -1 8 -4 -8 -10 l-25 -8 25 2
c21 2 25 8 28 40 3 34 1 37 -22 37 -13 0 -26 -6 -29 -12z m38 -18 c0 -7 -6
-15 -12 -17 -8 -3 -13 4 -13 17 0 13 5 20 13 18 6 -3 12 -11 12 -18z"/>
<path d="M12300 2700 c0 -16 5 -30 10 -30 6 0 10 14 10 30 0 17 -4 30 -10 30
-5 0 -10 -13 -10 -30z"/>
<path d="M12330 2715 c0 -8 7 -15 15 -15 8 0 15 -5 15 -11 0 -6 -7 -8 -17 -4
-14 5 -15 3 -6 -6 13 -13 43 -5 43 12 0 6 -10 13 -22 17 -21 5 -21 6 -2 13 18
7 17 8 -3 8 -14 1 -23 -5 -23 -14z"/>
<path d="M12531 2698 c2 -28 2 -29 6 -8 3 14 10 28 17 32 7 5 5 8 -6 8 -14 0
-18 -8 -17 -32z"/>
<path d="M2208 2019 c-22 -12 -23 -52 -3 -69 18 -15 47 -10 53 10 4 12 2 13
-9 3 -19 -19 -37 -16 -44 8 -10 30 18 57 39 39 9 -7 16 -8 16 -2 0 5 -7 13
-16 16 -19 7 -15 8 -36 -5z"/>
<path d="M2283 1985 c0 -27 2 -38 4 -22 2 15 10 27 18 27 8 0 16 -12 18 -27
l4 -28 2 28 c1 21 -4 30 -18 34 -11 3 -22 12 -24 22 -3 9 -5 -6 -4 -34z"/>
<path d="M2683 1985 c0 -27 2 -38 4 -22 2 15 2 37 0 50 -2 12 -4 0 -4 -28z"/>
<path d="M3003 1985 c0 -27 2 -38 4 -22 2 15 2 37 0 50 -2 12 -4 0 -4 -28z"/>
<path d="M2365 1991 c19 -8 19 -8 -3 -15 -29 -10 -23 -30 10 -34 22 -3 24 0
20 27 -3 24 -9 31 -26 30 -20 0 -20 -1 -1 -8z m15 -31 c0 -5 -7 -10 -16 -10
-8 0 -12 5 -9 10 3 6 10 10 16 10 5 0 9 -4 9 -10z"/>
<path d="M2411 1968 c1 -30 2 -30 8 -9 9 35 29 37 34 4 4 -27 4 -27 6 5 1 28
-2 32 -24 32 -22 0 -25 -4 -24 -32z"/>
<path d="M2475 1990 c-10 -17 5 -50 23 -51 14 0 13 -2 -3 -9 -19 -8 -19 -9 1
-9 21 -1 34 21 34 62 0 19 -44 25 -55 7z m35 -20 c0 -21 -15 -27 -25 -10 -7
12 2 30 16 30 5 0 9 -9 9 -20z"/>
<path d="M2544 1985 c-13 -32 24 -63 41 -35 3 5 0 7 -8 4 -8 -3 -18 -1 -22 5
-3 7 2 11 14 11 12 0 21 7 21 15 0 8 -9 15 -20 15 -11 0 -23 -7 -26 -15z m33
-1 c-3 -3 -12 -4 -19 -1 -8 3 -5 6 6 6 11 1 17 -2 13 -5z"/>
<path d="M2611 1968 c2 -28 2 -29 6 -8 3 14 10 28 17 32 7 5 5 8 -6 8 -14 0
-18 -8 -17 -32z"/>
<path d="M2707 1988 c-10 -30 31 -65 47 -39 4 5 -3 7 -14 4 -11 -3 -20 0 -20
6 0 6 9 11 21 11 27 0 20 24 -8 28 -12 2 -23 -3 -26 -10z m40 -4 c-3 -3 -12
-4 -19 -1 -8 3 -5 6 6 6 11 1 17 -2 13 -5z"/>
<path d="M2811 1968 c2 -31 2 -31 6 -5 5 34 23 36 23 2 0 -14 5 -25 10 -25 6
0 10 11 10 25 0 34 18 32 23 -2 4 -26 4 -26 6 5 1 31 0 32 -39 32 -39 0 -40
-1 -39 -32z"/>
<path d="M2925 1991 c19 -8 19 -8 -3 -15 -29 -10 -23 -30 10 -34 22 -3 24 0
20 27 -3 24 -9 31 -26 30 -20 0 -20 -1 -1 -8z m15 -31 c0 -5 -7 -10 -16 -10
-8 0 -12 5 -9 10 3 6 10 10 16 10 5 0 9 -4 9 -10z"/>
<path d="M2972 1970 c0 -19 2 -27 5 -17 2 9 2 25 0 35 -3 9 -5 1 -5 -18z"/>
<path d="M680 1958 l-1 -33 -20 28 c-29 38 -39 34 -38 -15 l2 -43 6 35 6 35
20 -32 c26 -45 35 -41 35 12 0 25 -2 45 -5 45 -3 0 -5 -15 -5 -32z"/>
<path d="M1323 1945 c0 -27 2 -38 4 -22 2 15 2 37 0 50 -2 12 -4 0 -4 -28z"/>
<path d="M707 1947 c-8 -22 17 -51 37 -44 25 10 17 51 -10 55 -12 2 -24 -3
-27 -11z m41 -14 c-5 -25 -28 -28 -28 -4 0 12 6 21 16 21 9 0 14 -7 12 -17z"/>
<path d="M773 1935 c1 -23 7 -31 25 -33 19 -3 22 1 21 30 -2 30 -2 31 -6 6 -2
-16 -8 -28 -13 -28 -5 0 -13 12 -19 28 l-10 27 2 -30z"/>
<path d="M840 1949 c0 -8 6 -23 13 -33 12 -16 14 -16 25 9 7 15 10 30 7 33 -3
4 -9 -4 -12 -17 l-6 -23 -13 23 c-9 16 -13 19 -14 8z"/>
<path d="M897 1948 c-10 -30 31 -65 47 -39 4 5 -3 7 -14 4 -11 -3 -20 0 -20 6
0 6 9 11 21 11 27 0 20 24 -8 28 -12 2 -23 -3 -26 -10z m40 -4 c-3 -3 -12 -4
-19 -1 -8 3 -5 6 6 6 11 1 17 -2 13 -5z"/>
<path d="M985 1951 c19 -8 19 -8 -3 -15 -29 -10 -23 -30 10 -34 22 -3 24 0 20
27 -3 24 -9 31 -26 30 -20 0 -20 -1 -1 -8z m15 -31 c0 -5 -7 -10 -16 -10 -8 0
-12 5 -9 10 3 6 10 10 16 10 5 0 9 -4 9 -10z"/>
<path d="M1034 1930 c1 -18 7 -26 24 -28 19 -3 22 1 21 30 -2 30 -2 31 -6 6
-5 -34 -30 -37 -36 -5 -3 19 -4 19 -3 -3z"/>
<path d="M1131 1928 c2 -31 2 -31 6 -5 2 15 10 27 18 27 8 0 16 -12 18 -27 l4
-28 2 28 c0 15 5 27 10 27 5 0 12 -12 14 -27 4 -26 4 -26 6 5 1 31 0 32 -39
32 -39 0 -40 -1 -39 -32z"/>
<path d="M1232 1930 c-1 -25 3 -30 24 -30 20 0 24 5 24 30 0 25 -4 30 -23 30
-20 0 -24 -5 -25 -30z m35 14 c-3 -3 -12 -4 -19 -1 -8 3 -5 6 6 6 11 1 17 -2
13 -5z m3 -24 c0 -5 -7 -10 -16 -10 -8 0 -12 5 -9 10 3 6 10 10 16 10 5 0 9
-4 9 -10z"/>
<path d="M1290 1930 c0 -16 5 -30 10 -30 6 0 10 14 10 30 0 17 -4 30 -10 30
-5 0 -10 -13 -10 -30z"/>
<path d="M10326 1917 c-12 -9 -17 -23 -14 -42 2 -25 8 -30 34 -33 26 -3 33 1
37 20 6 22 -15 68 -31 68 -5 0 -16 -6 -26 -13z m44 -32 c0 -23 -24 -40 -41
-29 -13 8 -11 52 4 57 21 7 37 -4 37 -28z"/>
<path d="M10492 1884 c2 -23 9 -39 18 -41 12 -4 13 -3 1 5 -9 6 -11 19 -7 35
3 15 1 29 -5 32 -7 5 -9 -6 -7 -31z"/>
<path d="M10527 1913 c-6 -11 4 -73 12 -73 4 0 5 18 3 40 -4 40 -7 46 -15 33z"/>
<path d="M10767 1913 c-6 -11 4 -73 12 -73 4 0 5 18 3 40 -4 40 -7 46 -15 33z"/>
<path d="M11218 1909 c-6 -17 3 -69 11 -69 7 0 6 69 -2 76 -3 3 -7 0 -9 -7z"/>
<path d="M10404 1870 c1 -18 7 -26 24 -28 19 -3 22 1 21 30 -2 30 -2 31 -6 6
-5 -34 -30 -37 -36 -5 -3 19 -4 19 -3 -3z"/>
<path d="M10460 1870 c0 -16 5 -30 10 -30 6 0 10 14 10 30 0 17 -4 30 -10 30
-5 0 -10 -13 -10 -30z"/>
<path d="M10557 1888 c-10 -30 31 -65 47 -39 4 5 -3 7 -14 4 -11 -3 -20 0 -20
6 0 6 9 11 21 11 27 0 20 24 -8 28 -12 2 -23 -3 -26 -10z m40 -4 c-3 -3 -12
-4 -19 -1 -8 3 -5 6 6 6 11 1 17 -2 13 -5z"/>
<path d="M10620 1870 c0 -16 5 -30 10 -30 6 0 10 11 10 24 0 13 6 27 13 29 6
3 2 6 -10 6 -19 1 -23 -4 -23 -29z"/>
<path d="M10697 1888 c-10 -30 31 -65 47 -39 4 5 -3 7 -14 4 -11 -3 -20 0 -20
6 0 6 9 11 21 11 27 0 20 24 -8 28 -12 2 -23 -3 -26 -10z m40 -4 c-3 -3 -12
-4 -19 -1 -8 3 -5 6 6 6 11 1 17 -2 13 -5z"/>
<path d="M10827 1888 c-10 -30 31 -65 47 -39 4 5 -3 7 -14 4 -11 -3 -20 0 -20
6 0 6 9 11 21 11 27 0 20 24 -8 28 -12 2 -23 -3 -26 -10z m40 -4 c-3 -3 -12
-4 -19 -1 -8 3 -5 6 6 6 11 1 17 -2 13 -5z"/>
<path d="M10890 1870 c0 -16 5 -30 10 -30 6 0 10 11 10 25 0 34 18 32 23 -2 4
-26 4 -26 6 5 1 28 -2 32 -24 32 -21 0 -25 -5 -25 -30z"/>
<path d="M10961 1868 c2 -28 2 -29 6 -8 3 14 10 28 17 32 7 5 5 8 -6 8 -14 0
-18 -8 -17 -32z"/>
<path d="M11004 1885 c-13 -32 24 -63 41 -35 3 5 0 7 -8 4 -8 -3 -18 -1 -22 5
-3 7 2 11 14 11 12 0 21 7 21 15 0 8 -9 15 -20 15 -11 0 -23 -7 -26 -15z m33
-1 c-3 -3 -12 -4 -19 -1 -8 3 -5 6 6 6 11 1 17 -2 13 -5z"/>
<path d="M11067 1888 c-7 -19 11 -48 31 -49 11 -1 8 -4 -8 -10 l-25 -8 25 2
c21 2 25 8 28 40 3 34 1 37 -22 37 -13 0 -26 -6 -29 -12z m38 -18 c0 -7 -6
-15 -12 -17 -8 -3 -13 4 -13 17 0 13 5 20 13 18 6 -3 12 -11 12 -18z"/>
<path d="M11130 1870 c0 -16 5 -30 10 -30 6 0 10 14 10 30 0 17 -4 30 -10 30
-5 0 -10 -13 -10 -30z"/>
<path d="M11160 1885 c0 -8 7 -15 15 -15 8 0 15 -5 15 -11 0 -6 -7 -8 -17 -4
-14 5 -15 3 -6 -6 13 -13 43 -5 43 12 0 6 -10 13 -22 17 -21 5 -21 6 -2 13 18
7 17 8 -3 8 -14 1 -23 -5 -23 -14z"/>
<path d="M11251 1868 c2 -28 2 -29 6 -8 3 14 10 28 17 32 7 5 5 8 -6 8 -14 0
-18 -8 -17 -32z"/>
<path d="M11294 1885 c-13 -32 24 -63 41 -35 3 5 0 7 -8 4 -8 -3 -18 -1 -22 5
-3 7 2 11 14 11 12 0 21 7 21 15 0 8 -9 15 -20 15 -11 0 -23 -7 -26 -15z m33
-1 c-3 -3 -12 -4 -19 -1 -8 3 -5 6 6 6 11 1 17 -2 13 -5z"/>
<path d="M11361 1868 c2 -28 2 -29 6 -8 3 14 10 28 17 32 7 5 5 8 -6 8 -14 0
-18 -8 -17 -32z"/>
<path d="M2886 1277 c-25 -18 -18 -71 10 -75 11 -2 27 5 35 15 13 16 12 17 -3
4 -24 -18 -48 -7 -48 23 0 25 25 43 35 26 4 -6 11 -10 17 -10 7 0 6 6 -2 15
-15 18 -21 19 -44 2z"/>
<path d="M3363 1245 c0 -27 2 -38 4 -22 2 15 2 37 0 50 -2 12 -4 0 -4 -28z"/>
<path d="M2950 1240 c0 -22 5 -40 10 -40 6 0 10 11 10 25 0 34 18 32 23 -2 4
-26 4 -26 6 5 1 22 -3 32 -14 32 -8 0 -15 5 -15 10 0 6 -4 10 -10 10 -5 0 -10
-18 -10 -40z"/>
<path d="M3958 1268 c-2 -6 -21 -11 -41 -10 -35 1 -37 0 -37 -28 0 -17 5 -30
10 -30 6 0 10 11 10 25 0 31 17 33 22 3 2 -15 11 -24 26 -26 20 -3 22 1 22 37
0 41 -5 52 -12 29z m2 -38 c0 -11 -4 -20 -9 -20 -14 0 -23 18 -16 30 10 17 25
11 25 -10z"/>
<path d="M3023 1245 c4 -8 2 -17 -4 -20 -15 -10 0 -25 27 -25 20 0 24 5 24 30
0 26 -4 30 -26 30 -19 0 -25 -4 -21 -15z m34 -1 c-3 -3 -12 -4 -19 -1 -8 3 -5
6 6 6 11 1 17 -2 13 -5z m-2 -24 c-3 -5 -10 -10 -16 -10 -5 0 -9 5 -9 10 0 6
7 10 16 10 8 0 12 -4 9 -10z"/>
<path d="M3080 1230 c0 -16 5 -30 10 -30 6 0 10 11 10 25 0 34 18 32 23 -2 4
-26 4 -26 6 5 1 28 -2 32 -24 32 -21 0 -25 -5 -25 -30z"/>
<path d="M3157 1253 c-15 -15 -6 -45 16 -51 22 -6 22 -6 -3 -13 l-25 -7 28 -1
c25 -1 27 2 27 39 0 32 -4 40 -18 40 -10 0 -22 -3 -25 -7z m31 -20 c-4 -22
-22 -20 -26 1 -2 10 3 16 13 16 10 0 15 -7 13 -17z"/>
<path d="M3217 1248 c-10 -30 31 -65 47 -39 4 5 -3 7 -14 4 -11 -3 -20 0 -20
6 0 6 9 11 21 11 27 0 20 24 -8 28 -12 2 -23 -3 -26 -10z m40 -4 c-3 -3 -12
-4 -19 -1 -8 3 -5 6 6 6 11 1 17 -2 13 -5z"/>
<path d="M3280 1230 c0 -16 5 -30 10 -30 6 0 10 11 10 24 0 13 6 27 13 29 6 3
2 6 -10 6 -19 1 -23 -4 -23 -29z"/>
<path d="M3384 1245 c-13 -32 24 -63 41 -35 3 5 0 7 -8 4 -8 -3 -18 -1 -22 5
-3 7 2 11 14 11 12 0 21 7 21 15 0 8 -9 15 -20 15 -11 0 -23 -7 -26 -15z m33
-1 c-3 -3 -12 -4 -19 -1 -8 3 -5 6 6 6 11 1 17 -2 13 -5z"/>
<path d="M3480 1218 c0 -24 4 -38 8 -32 4 6 15 13 25 17 10 4 17 17 17 32 0
20 -5 25 -25 25 -23 0 -25 -4 -25 -42z m40 12 c0 -11 -4 -20 -9 -20 -14 0 -23
18 -16 30 10 17 25 11 25 -10z"/>
<path d="M3553 1245 c4 -8 2 -17 -4 -20 -15 -10 0 -25 27 -25 20 0 24 5 24 30
0 26 -4 30 -26 30 -19 0 -25 -4 -21 -15z m34 -1 c-3 -3 -12 -4 -19 -1 -8 3 -5
6 6 6 11 1 17 -2 13 -5z m-2 -24 c-3 -5 -10 -10 -16 -10 -5 0 -9 5 -9 10 0 6
7 10 16 10 8 0 12 -4 9 -10z"/>
<path d="M3610 1251 c0 -5 10 -16 23 -25 l22 -17 -24 5 c-17 3 -21 2 -13 -6
12 -12 42 -4 42 13 0 6 -10 14 -22 17 -23 6 -23 6 2 13 l25 7 -27 1 c-16 1
-28 -3 -28 -8z"/>
<path d="M3670 1251 c0 -5 10 -16 23 -25 l22 -17 -24 5 c-17 3 -21 2 -13 -6
12 -12 42 -4 42 13 0 6 -10 14 -22 17 -23 6 -23 6 2 13 l25 7 -27 1 c-16 1
-28 -3 -28 -8z"/>
<path d="M3734 1240 c3 -14 6 -28 6 -32 0 -5 5 -8 10 -8 15 0 12 22 -7 45 -15
20 -15 19 -9 -5z"/>
<path d="M3760 1248 c0 -7 7 -22 15 -32 14 -18 15 -18 25 8 14 37 13 43 -5 20
-13 -17 -14 -17 -15 -1 0 9 -4 17 -10 17 -5 0 -10 -6 -10 -12z"/>
<path d="M3817 1247 c-8 -22 17 -51 37 -44 25 10 17 51 -10 55 -12 2 -24 -3
-27 -11z m41 -14 c-5 -25 -28 -28 -28 -4 0 12 6 21 16 21 9 0 14 -7 12 -17z"/>
<path d="M4880 1205 c0 -43 1 -45 30 -45 31 0 34 5 30 50 -2 27 -15 40 -42 40
-15 0 -18 -9 -18 -45z m48 17 c2 -7 -6 -12 -17 -12 -21 0 -27 11 -14 24 9 9
26 2 31 -12z m2 -37 c0 -8 -9 -15 -20 -15 -11 0 -20 7 -20 15 0 8 9 15 20 15
11 0 20 -7 20 -15z"/>
<path d="M5080 1200 c0 -22 5 -40 10 -40 6 0 10 5 10 12 0 6 8 20 18 31 16 19
16 20 0 14 -12 -4 -18 -1 -18 8 0 8 -4 15 -10 15 -5 0 -10 -18 -10 -40z"/>
<path d="M4962 1190 c-1 -25 3 -30 24 -30 20 0 24 5 24 30 0 25 -4 30 -23 30
-20 0 -24 -5 -25 -30z m35 14 c-3 -3 -12 -4 -19 -1 -8 3 -5 6 6 6 11 1 17 -2
13 -5z m3 -24 c0 -5 -7 -10 -16 -10 -8 0 -12 5 -9 10 3 6 10 10 16 10 5 0 9
-4 9 -10z"/>
<path d="M5025 1210 c-9 -15 4 -50 20 -50 8 0 16 4 19 9 3 5 -2 8 -12 7 -9 0
-17 6 -17 14 0 8 8 14 18 14 9 -1 17 2 17 7 0 12 -37 11 -45 -1z"/>
<path d="M5110 1181 c0 -5 5 -13 10 -16 6 -3 10 -2 10 4 0 5 -4 13 -10 16 -5
3 -10 2 -10 -4z"/>
<path d="M1322 665 c1 -32 3 -39 5 -21 l5 29 23 -29 24 -29 -1 50 c-1 47 -1
48 -8 15 -4 -19 -8 -30 -9 -25 -1 6 -10 21 -21 35 l-20 25 2 -50z"/>
<path d="M1831 663 c1 -27 4 -38 6 -25 3 14 12 22 24 22 11 0 22 7 26 16 7 18
-12 34 -39 34 -15 0 -18 -8 -17 -47z m47 20 c2 -8 -5 -13 -17 -13 -12 0 -21 6
-21 16 0 18 31 15 38 -3z"/>
<path d="M2320 690 c0 -5 -9 -10 -19 -10 -11 0 -21 -6 -24 -12 -7 -21 12 -48
33 -48 17 0 20 7 20 40 0 22 -2 40 -5 40 -3 0 -5 -4 -5 -10z m-5 -40 c0 -7 -6
-15 -12 -17 -8 -3 -13 4 -13 17 0 13 5 20 13 18 6 -3 12 -11 12 -18z"/>
<path d="M1404 665 c-9 -23 4 -47 23 -43 11 2 19 14 21 31 3 22 -1 27 -18 27
-11 0 -23 -7 -26 -15z m36 -15 c0 -11 -7 -20 -15 -20 -8 0 -15 9 -15 20 0 11
7 20 15 20 8 0 15 -9 15 -20z"/>
<path d="M1471 653 c-1 -29 2 -33 24 -33 22 0 25 4 24 33 -1 29 -2 29 -8 8 -9
-35 -29 -37 -34 -4 -4 27 -4 27 -6 -4z"/>
<path d="M1530 669 c0 -8 6 -23 13 -33 12 -16 14 -16 25 9 7 15 10 30 7 33 -3
4 -9 -4 -12 -17 l-6 -23 -13 23 c-9 16 -13 19 -14 8z"/>
<path d="M1594 665 c-13 -32 24 -63 41 -35 3 5 0 7 -8 4 -8 -3 -18 -1 -22 5
-3 7 2 11 14 11 12 0 21 7 21 15 0 8 -9 15 -20 15 -11 0 -23 -7 -26 -15z m33
-1 c-3 -3 -12 -4 -19 -1 -8 3 -5 6 6 6 11 1 17 -2 13 -5z"/>
<path d="M1662 650 c-1 -25 3 -30 24 -30 20 0 24 5 24 30 0 25 -4 30 -23 30
-20 0 -24 -5 -25 -30z m35 14 c-3 -3 -12 -4 -19 -1 -8 3 -5 6 6 6 11 1 17 -2
13 -5z m-2 -24 c-3 -5 -10 -10 -16 -10 -5 0 -9 5 -9 10 0 6 7 10 16 10 8 0 12
-4 9 -10z"/>
<path d="M1723 655 c1 -23 7 -31 25 -33 19 -3 22 1 21 30 -2 30 -2 31 -6 6 -2
-16 -8 -28 -13 -28 -5 0 -13 12 -19 28 l-10 27 2 -30z"/>
<path d="M1902 650 c-1 -25 3 -30 24 -30 20 0 24 5 24 30 0 25 -4 30 -23 30
-20 0 -24 -5 -25 -30z m35 14 c-3 -3 -12 -4 -19 -1 -8 3 -5 6 6 6 11 1 17 -2
13 -5z m3 -24 c0 -5 -7 -10 -16 -10 -8 0 -12 5 -9 10 3 6 10 10 16 10 5 0 9
-4 9 -10z"/>
<path d="M1970 669 c0 -7 8 -18 18 -26 16 -14 16 -14 0 -9 -10 3 -18 1 -18 -4
0 -6 9 -10 20 -10 24 0 27 28 3 37 -15 6 -15 7 3 14 17 7 17 8 -3 8 -13 1 -23
-4 -23 -10z"/>
<path d="M2030 669 c0 -7 8 -18 18 -26 16 -14 16 -14 0 -9 -10 3 -18 1 -18 -4
0 -6 9 -10 20 -10 24 0 27 28 3 37 -15 6 -15 7 3 14 17 7 17 8 -3 8 -13 1 -23
-4 -23 -10z"/>
<path d="M2085 668 c15 -54 16 -54 30 -28 14 25 14 25 15 3 0 -13 4 -23 9 -23
10 0 25 50 16 58 -3 3 -5 -3 -5 -14 -1 -19 -1 -19 -15 0 -13 17 -15 18 -21 2
-6 -15 -7 -15 -20 1 -13 17 -14 17 -9 1z"/>
<path d="M2175 670 c-12 -20 6 -51 28 -48 31 4 31 52 0 56 -11 2 -24 -2 -28
-8z m41 -11 c10 -17 -13 -36 -27 -22 -12 12 -4 33 11 33 5 0 12 -5 16 -11z"/>
<path d="M2241 648 c2 -28 2 -29 6 -8 3 14 10 28 17 32 7 5 5 8 -6 8 -14 0
-18 -8 -17 -32z"/>
</g>
</svg>
